<?xml version="1.0" encoding="UTF-8"?>
<svg id="Layer_2" data-name="Layer 2" xmlns="http://www.w3.org/2000/svg" xmlns:xlink="http://www.w3.org/1999/xlink" viewBox="0 0 100 100">
  <defs>
    <style>
      .cls-1 {
        fill: #ceff70;
      }

      .cls-2 {
        fill: url(#linear-gradient);
      }
    </style>
    <linearGradient id="linear-gradient" x1="0" y1="50" x2="100" y2="50" gradientUnits="userSpaceOnUse">
      <stop offset="0" stop-color="#0038bc"/>
      <stop offset="1" stop-color="#007aff"/>
    </linearGradient>
  </defs>
  <g id="Layer_1-2" data-name="Layer 1">
    <rect class="cls-2" width="100" height="100"/>
    <g>
      <path class="cls-1" d="M73.27,57.77c-3.54-1.47-7.6.21-9.07,3.74-1.47,3.54.21,7.6,3.74,9.07,3.54,1.47,7.6-.21,9.07-3.74,1.47-3.54-.21-7.6-3.74-9.07Z"/>
      <path class="cls-1" d="M60.21,41.22l-.12-.05c-2.23-.93-4.66-.58-6.52.69l-.03-.04-9.55,8.22,6-14.43c1.47-3.54-.22-7.6-3.75-9.07-3.54-1.47-7.59.2-9.06,3.74l-14.18,34.13c-1.47,3.54.2,7.59,3.74,9.06,1.77.74,3.67.69,5.32.01.34-.14.67-.33.99-.53l.07.08,9.91-8.53c-1.1,3.37.53,7.07,3.87,8.46l.12.05c3.5,1.46,7.53-.2,8.98-3.71l7.94-19.1c1.46-3.5-.2-7.53-3.71-8.98Z"/>
    </g>
  </g>
</svg>