<?xml version="1.0" encoding="UTF-8"?>
<svg id="Layer_2" data-name="Layer 2" xmlns="http://www.w3.org/2000/svg" viewBox="0 0 155.22 22.9">
  <defs>
    <style>
      .cls-1 {
        fill: #fff;
      }

      .cls-2 {
        fill: #ceff70;
      }

      .cls-3 {
        fill: #31caff;
      }
    </style>
  </defs>
  <g id="Layer_1" data-name="Layer 1">
    <g>
      <path class="cls-1" d="M43.86,11.04c-.2-.64-.51-1.24-.93-1.8-.42-.56-.98-1.03-1.69-1.39-.71-.36-1.61-.55-2.7-.55-1.38,0-2.55.3-3.5.91-.51.33-.95.72-1.32,1.16v-5.1c0-.81-.66-1.47-1.47-1.47s-1.47.66-1.47,1.47v16.53c0,.92.75,1.67,1.67,1.67s1.67-.75,1.67-1.67v-5.91c0-.9.1-1.64.3-2.22.2-.58.47-1.03.8-1.37s.7-.57,1.11-.7c.41-.14.82-.2,1.24-.2.78,0,1.4.17,1.86.51s.81.77,1.04,1.29c.23.52.38,1.07.44,1.63.06.56.1,1.08.1,1.54v5.44c0,.92.75,1.67,1.67,1.67s1.67-.75,1.67-1.67v-6.57c0-.36-.03-.82-.09-1.39-.06-.57-.19-1.17-.39-1.81Z"/>
      <path class="cls-1" d="M58.61,7.72h-.4c-.8,0-1.45.65-1.45,1.45v6.13c0,.89-.1,1.63-.3,2.21-.2.58-.47,1.04-.8,1.37-.33.33-.7.57-1.11.7-.41.14-.82.21-1.24.21-.78,0-1.4-.17-1.86-.51-.46-.34-.81-.77-1.04-1.29-.23-.52-.38-1.07-.44-1.64-.06-.57-.1-1.08-.1-1.54v-5.65c0-.8-.65-1.45-1.45-1.45h-.42c-.8,0-1.45.65-1.45,1.45v6.78c0,.36.03.82.09,1.39.06.57.19,1.17.39,1.81.2.64.51,1.24.93,1.8s.98,1.03,1.69,1.39c.71.36,1.61.55,2.7.55,1.38,0,2.55-.3,3.5-.91.51-.33.95-.72,1.33-1.16v.2c0,.8.65,1.45,1.45,1.45s1.45-.65,1.45-1.45v-11.84c0-.8-.65-1.45-1.45-1.45Z"/>
      <path class="cls-1" d="M72.58,14.78c-.71-.39-1.65-.73-2.82-1.03-1.15-.29-2.01-.54-2.59-.74s-.96-.4-1.15-.6c-.19-.2-.29-.44-.29-.72,0-.5.24-.89.71-1.17.47-.28,1.1-.39,1.87-.35.81.05,1.46.25,1.95.61.2.15.37.33.5.53.36.53.95.85,1.59.74l.33-.06c1.11-.2,1.63-1.5.96-2.41-.05-.07-.11-.15-.17-.22-.55-.66-1.26-1.16-2.15-1.52-.89-.36-1.91-.53-3.05-.53s-2.19.18-3.06.55c-.87.37-1.54.89-2.02,1.58-.48.68-.72,1.48-.72,2.4,0,.74.16,1.37.48,1.88.32.52.84.97,1.57,1.35s1.71.73,2.95,1.06c1.11.29,1.93.53,2.47.72.54.19.89.39,1.04.59.16.21.24.48.24.81,0,.55-.22.98-.65,1.29-.43.31-1.04.47-1.84.47-.9,0-1.65-.21-2.24-.63-.31-.22-.56-.48-.76-.78-.36-.56-1.01-.84-1.67-.74-1.28.2-1.87,1.69-1.09,2.73.3.4.66.75,1.08,1.05,1.14.82,2.62,1.23,4.44,1.23s3.39-.42,4.47-1.27c1.08-.85,1.62-2.01,1.62-3.5,0-.76-.16-1.42-.47-1.95-.31-.54-.82-1-1.53-1.39Z"/>
      <path class="cls-1" d="M89.55,11.04c-.2-.64-.51-1.24-.93-1.8-.42-.56-.98-1.03-1.69-1.39-.71-.36-1.61-.55-2.7-.55-1.38,0-2.55.3-3.5.91-.51.33-.95.72-1.32,1.16v-5.1c0-.81-.66-1.47-1.47-1.47s-1.47.66-1.47,1.47v16.73c0,.81.66,1.47,1.47,1.47h.4c.81,0,1.47-.66,1.47-1.47v-6.11c0-.9.1-1.64.3-2.22.2-.58.47-1.03.8-1.37s.7-.57,1.11-.7c.41-.14.82-.2,1.24-.2.78,0,1.4.17,1.86.51s.81.77,1.04,1.29c.23.52.38,1.07.44,1.63.06.56.1,1.08.1,1.54v5.63c0,.81.66,1.47,1.47,1.47h.4c.81,0,1.47-.66,1.47-1.47v-6.77c0-.36-.03-.82-.09-1.39-.06-.57-.19-1.17-.39-1.81Z"/>
      <path class="cls-2" d="M102.28,14.78c-.71-.39-1.64-.73-2.82-1.03-1.15-.29-2.01-.54-2.59-.74s-.96-.4-1.15-.6-.29-.44-.29-.72c0-.5.24-.89.71-1.17.47-.28,1.1-.39,1.87-.35.81.05,1.46.25,1.95.61.2.15.37.33.5.52.36.53.95.86,1.59.74l.33-.06c1.11-.2,1.63-1.5.96-2.41-.06-.07-.11-.15-.17-.22-.54-.66-1.26-1.16-2.15-1.52-.89-.36-1.91-.53-3.05-.53s-2.2.18-3.06.55c-.87.37-1.54.89-2.02,1.58-.48.68-.72,1.48-.72,2.4,0,.74.16,1.37.48,1.88.32.52.84.97,1.57,1.35.73.38,1.71.73,2.95,1.06,1.11.29,1.94.53,2.47.72.54.19.88.39,1.04.59.16.21.24.48.24.81,0,.55-.21.98-.65,1.29-.43.31-1.04.47-1.84.47-.9,0-1.65-.21-2.24-.63-.34-.24-.61-.53-.82-.88-.3-.51-.91-.75-1.5-.66l-.39.06c-1.07.17-1.64,1.37-1.08,2.29.34.56.79,1.04,1.35,1.44,1.14.82,2.62,1.23,4.44,1.23s3.39-.42,4.47-1.27c1.08-.85,1.62-2.01,1.62-3.5,0-.76-.16-1.42-.47-1.95-.31-.54-.83-1-1.53-1.39Z"/>
      <path class="cls-2" d="M110.48,11.01c.56-.41,1.26-.61,2.12-.61.76,0,1.43.22,2.02.66.32.24.59.53.81.87.37.57,1.07.81,1.72.64l.28-.07c1.04-.28,1.51-1.51.92-2.41-.38-.58-.86-1.08-1.45-1.51-1.16-.84-2.58-1.26-4.25-1.26-1.49,0-2.78.33-3.87,1-1.08.67-1.92,1.59-2.51,2.76-.59,1.17-.89,2.51-.89,4.02,0,1.48.3,2.81.87,3.99.57,1.17,1.39,2.1,2.47,2.78,1.07.68,2.37,1.02,3.89,1.02,1.65,0,3.04-.4,4.18-1.21.56-.4,1.03-.87,1.43-1.44.65-.92.13-2.21-.97-2.46l-.21-.05c-.64-.14-1.32.12-1.67.68-.2.31-.43.57-.69.78-.5.4-1.2.6-2.07.6-1.24,0-2.17-.43-2.8-1.3-.63-.86-.94-2-.94-3.4,0-.9.13-1.71.4-2.42.26-.71.67-1.27,1.23-1.67Z"/>
      <path class="cls-2" d="M132.21,10.06c-.46-.9-1.68-1.93-2.64-2.27-.9-.32-1.91-.48-3.04-.48-1.74,0-3.12.38-4.15,1.13-.42.31-.79.67-1.1,1.06-.68.87-.27,2.16.78,2.5.62.19,1.31,0,1.7-.52.22-.29.5-.52.83-.69.62-.31,1.26-.46,1.93-.46,1.1,0,1.88.24,2.35.72.39.4.6,1,.66,1.76-.59.09-1.17.17-1.73.25-.93.13-1.8.28-2.59.43s-1.49.33-2.08.52c-.78.26-1.42.6-1.91,1.02-.49.41-.86.91-1.09,1.48-.24.57-.36,1.21-.36,1.92,0,.81.19,1.55.57,2.23.38.67.94,1.21,1.67,1.62.74.41,1.64.61,2.7.61,1.33,0,2.44-.25,3.33-.74.68-.38,1.3-.94,1.85-1.66v.55c0,.8.65,1.44,1.44,1.44s1.44-.65,1.44-1.44v-7.61c0-.64-.03-1.23-.08-1.77-.05-.54-.21-1.07-.48-1.59ZM129.18,17.82c-.11.34-.32.7-.63,1.08-.31.38-.74.71-1.26.97s-1.17.4-1.91.4c-.52,0-.95-.08-1.3-.25-.35-.16-.62-.38-.8-.66-.18-.28-.27-.6-.27-.96,0-.32.07-.6.21-.83.14-.24.34-.45.61-.63.26-.18.59-.34.97-.48.39-.13.84-.24,1.35-.35.51-.1,1.12-.22,1.83-.33.45-.07.98-.16,1.54-.25,0,.25-.01.53-.03.86-.02.54-.12,1.02-.29,1.44Z"/>
      <path class="cls-2" d="M137.15,2.4c-.91,0-1.65.74-1.65,1.65v16.79c0,.91.74,1.65,1.65,1.65s1.65-.74,1.65-1.65V4.04c0-.91-.74-1.65-1.65-1.65Z"/>
      <path class="cls-2" d="M152.33,16.01h1.64c.7,0,1.26-.58,1.25-1.27-.03-1.24-.23-2.35-.62-3.33-.52-1.3-1.31-2.31-2.38-3.03-1.07-.71-2.37-1.07-3.9-1.07-1.45,0-2.72.33-3.82.98-1.1.66-1.96,1.58-2.58,2.77-.62,1.19-.93,2.59-.93,4.2,0,1.49.32,2.81.95,3.96s1.51,2.04,2.64,2.69c1.13.65,2.44.97,3.93.97s2.72-.37,3.9-1.11c.51-.32.96-.69,1.35-1.12.79-.85.42-2.24-.69-2.58l-.16-.05c-.63-.19-1.28.06-1.71.56-.23.26-.49.48-.78.66-.59.36-1.29.54-2.1.54-1.26,0-2.21-.41-2.87-1.23-.51-.64-.82-1.5-.93-2.55h7.81ZM148.45,10.19c1.19,0,2.07.37,2.62,1.11.39.52.64,1.27.76,2.23h-7.23c.15-.85.42-1.55.84-2.08.66-.83,1.66-1.25,3-1.25Z"/>
      <path class="cls-3" d="M24.24,15.16c-1.69-.7-3.62.1-4.33,1.79-.7,1.69.1,3.62,1.79,4.33,1.69.7,3.62-.1,4.33-1.79.7-1.69-.1-3.62-1.79-4.33Z"/>
      <path class="cls-3" d="M18.01,7.26l-.06-.02c-1.06-.44-2.23-.28-3.11.33l-.02-.02-4.55,3.92,2.86-6.89c.7-1.69-.1-3.62-1.79-4.33-1.69-.7-3.62.1-4.32,1.79L.25,18.32c-.7,1.69.1,3.62,1.79,4.32.84.35,1.75.33,2.54,0,.16-.07.32-.16.47-.25l.03.04,4.73-4.07c-.52,1.61.25,3.38,1.84,4.04l.06.02c1.67.69,3.59-.1,4.28-1.77l3.79-9.11c.69-1.67-.1-3.59-1.77-4.28Z"/>
    </g>
  </g>
</svg>